<mxfile host="app.diagrams.net" agent="Mozilla/5.0 (Windows NT 10.0; Win64; x64) AppleWebKit/537.36 (KHTML, like Gecko) Chrome/126.0.0.0 YaBrowser/24.7.0.0 Safari/537.36" version="24.7.14">
  <diagram name="Страница — 1" id="bffaIaUgPj-lb92tKCOW">
    <mxGraphModel dx="989" dy="546" grid="1" gridSize="10" guides="1" tooltips="1" connect="1" arrows="1" fold="1" page="1" pageScale="1" pageWidth="827" pageHeight="1169" math="0" shadow="0">
      <root>
        <mxCell id="0" />
        <mxCell id="1" parent="0" />
        <mxCell id="QN_zCHdE3AJuGpnY9dIm-1" value="Начало" style="strokeWidth=2;html=1;shape=mxgraph.flowchart.terminator;whiteSpace=wrap;strokeColor=default;align=center;verticalAlign=middle;fontFamily=Helvetica;fontSize=12;fontColor=default;labelBackgroundColor=default;fillColor=default;" vertex="1" parent="1">
          <mxGeometry x="320" y="80" width="280" height="40" as="geometry" />
        </mxCell>
        <mxCell id="QN_zCHdE3AJuGpnY9dIm-14" value="" style="edgeStyle=orthogonalEdgeStyle;shape=connector;rounded=0;orthogonalLoop=1;jettySize=auto;html=1;strokeColor=default;align=center;verticalAlign=middle;fontFamily=Helvetica;fontSize=12;fontColor=default;labelBackgroundColor=default;endArrow=none;endFill=0;" edge="1" parent="1" source="QN_zCHdE3AJuGpnY9dIm-2" target="QN_zCHdE3AJuGpnY9dIm-13">
          <mxGeometry relative="1" as="geometry" />
        </mxCell>
        <mxCell id="QN_zCHdE3AJuGpnY9dIm-2" value="Успешное добавление записи" style="rounded=1;whiteSpace=wrap;html=1;absoluteArcSize=1;arcSize=14;strokeWidth=2;strokeColor=default;align=center;verticalAlign=middle;fontFamily=Helvetica;fontSize=12;fontColor=default;labelBackgroundColor=default;fillColor=default;" vertex="1" parent="1">
          <mxGeometry x="320" y="320" width="280" height="40" as="geometry" />
        </mxCell>
        <mxCell id="QN_zCHdE3AJuGpnY9dIm-5" value="" style="edgeStyle=orthogonalEdgeStyle;shape=connector;rounded=0;orthogonalLoop=1;jettySize=auto;html=1;strokeColor=default;align=center;verticalAlign=middle;fontFamily=Helvetica;fontSize=12;fontColor=default;labelBackgroundColor=default;endArrow=none;endFill=0;" edge="1" parent="1" source="QN_zCHdE3AJuGpnY9dIm-3" target="QN_zCHdE3AJuGpnY9dIm-1">
          <mxGeometry relative="1" as="geometry" />
        </mxCell>
        <mxCell id="QN_zCHdE3AJuGpnY9dIm-6" value="" style="edgeStyle=orthogonalEdgeStyle;shape=connector;rounded=0;orthogonalLoop=1;jettySize=auto;html=1;strokeColor=default;align=center;verticalAlign=middle;fontFamily=Helvetica;fontSize=12;fontColor=default;labelBackgroundColor=default;endArrow=none;endFill=0;" edge="1" parent="1" source="QN_zCHdE3AJuGpnY9dIm-3" target="QN_zCHdE3AJuGpnY9dIm-4">
          <mxGeometry relative="1" as="geometry" />
        </mxCell>
        <mxCell id="QN_zCHdE3AJuGpnY9dIm-3" value="Ввод данных документа" style="shape=parallelogram;html=1;strokeWidth=2;perimeter=parallelogramPerimeter;whiteSpace=wrap;rounded=1;arcSize=12;size=0.23;strokeColor=default;align=center;verticalAlign=middle;fontFamily=Helvetica;fontSize=12;fontColor=default;labelBackgroundColor=default;fillColor=default;" vertex="1" parent="1">
          <mxGeometry x="320" y="160" width="280" height="40" as="geometry" />
        </mxCell>
        <mxCell id="QN_zCHdE3AJuGpnY9dIm-7" value="" style="edgeStyle=orthogonalEdgeStyle;shape=connector;rounded=0;orthogonalLoop=1;jettySize=auto;html=1;strokeColor=default;align=center;verticalAlign=middle;fontFamily=Helvetica;fontSize=12;fontColor=default;labelBackgroundColor=default;endArrow=none;endFill=0;" edge="1" parent="1" source="QN_zCHdE3AJuGpnY9dIm-4" target="QN_zCHdE3AJuGpnY9dIm-2">
          <mxGeometry relative="1" as="geometry" />
        </mxCell>
        <mxCell id="QN_zCHdE3AJuGpnY9dIm-15" value="Да" style="edgeLabel;html=1;align=center;verticalAlign=middle;resizable=0;points=[];strokeColor=default;strokeWidth=1;fontFamily=Helvetica;fontSize=12;fontColor=default;labelBackgroundColor=default;fillColor=default;" vertex="1" connectable="0" parent="QN_zCHdE3AJuGpnY9dIm-7">
          <mxGeometry x="0.15" relative="1" as="geometry">
            <mxPoint as="offset" />
          </mxGeometry>
        </mxCell>
        <mxCell id="QN_zCHdE3AJuGpnY9dIm-8" style="edgeStyle=orthogonalEdgeStyle;shape=connector;rounded=0;orthogonalLoop=1;jettySize=auto;html=1;strokeColor=default;align=center;verticalAlign=middle;fontFamily=Helvetica;fontSize=12;fontColor=default;labelBackgroundColor=default;endArrow=none;endFill=0;" edge="1" parent="1" source="QN_zCHdE3AJuGpnY9dIm-9">
          <mxGeometry relative="1" as="geometry">
            <mxPoint x="460" y="140" as="targetPoint" />
            <Array as="points">
              <mxPoint x="685" y="140" />
            </Array>
          </mxGeometry>
        </mxCell>
        <mxCell id="QN_zCHdE3AJuGpnY9dIm-12" style="edgeStyle=orthogonalEdgeStyle;shape=connector;rounded=0;orthogonalLoop=1;jettySize=auto;html=1;entryX=0.5;entryY=1;entryDx=0;entryDy=0;strokeColor=default;align=center;verticalAlign=middle;fontFamily=Helvetica;fontSize=12;fontColor=default;labelBackgroundColor=default;endArrow=none;endFill=0;" edge="1" parent="1" target="QN_zCHdE3AJuGpnY9dIm-9">
          <mxGeometry relative="1" as="geometry">
            <mxPoint x="599.9985714285715" y="260" as="sourcePoint" />
            <mxPoint x="824.97" y="250" as="targetPoint" />
            <Array as="points">
              <mxPoint x="685" y="260" />
            </Array>
          </mxGeometry>
        </mxCell>
        <mxCell id="QN_zCHdE3AJuGpnY9dIm-16" value="Нет" style="edgeLabel;html=1;align=center;verticalAlign=middle;resizable=0;points=[];strokeColor=default;strokeWidth=1;fontFamily=Helvetica;fontSize=12;fontColor=default;labelBackgroundColor=default;fillColor=default;" vertex="1" connectable="0" parent="QN_zCHdE3AJuGpnY9dIm-12">
          <mxGeometry x="-0.3449" y="-1" relative="1" as="geometry">
            <mxPoint as="offset" />
          </mxGeometry>
        </mxCell>
        <mxCell id="QN_zCHdE3AJuGpnY9dIm-4" value="Все данные верны?" style="strokeWidth=2;html=1;shape=mxgraph.flowchart.decision;whiteSpace=wrap;strokeColor=default;align=center;verticalAlign=middle;fontFamily=Helvetica;fontSize=12;fontColor=default;labelBackgroundColor=default;fillColor=default;" vertex="1" parent="1">
          <mxGeometry x="320" y="240" width="280" height="40" as="geometry" />
        </mxCell>
        <mxCell id="QN_zCHdE3AJuGpnY9dIm-9" value="Ошибка" style="shape=parallelogram;html=1;strokeWidth=2;perimeter=parallelogramPerimeter;whiteSpace=wrap;rounded=1;arcSize=12;size=0.23;strokeColor=default;align=center;verticalAlign=middle;fontFamily=Helvetica;fontSize=12;fontColor=default;labelBackgroundColor=default;fillColor=default;" vertex="1" parent="1">
          <mxGeometry x="600" y="190" width="170" height="40" as="geometry" />
        </mxCell>
        <mxCell id="QN_zCHdE3AJuGpnY9dIm-13" value="Конец" style="strokeWidth=2;html=1;shape=mxgraph.flowchart.terminator;whiteSpace=wrap;strokeColor=default;align=center;verticalAlign=middle;fontFamily=Helvetica;fontSize=12;fontColor=default;labelBackgroundColor=default;fillColor=default;" vertex="1" parent="1">
          <mxGeometry x="320" y="400" width="280" height="40" as="geometry" />
        </mxCell>
      </root>
    </mxGraphModel>
  </diagram>
</mxfile>
